G04 #@! TF.GenerationSoftware,KiCad,Pcbnew,5.0.1*
G04 #@! TF.CreationDate,2019-01-05T16:33:49+01:00*
G04 #@! TF.ProjectId,sensor_board-led,73656E736F725F626F6172642D6C6564,V1.2*
G04 #@! TF.SameCoordinates,Original*
G04 #@! TF.FileFunction,Soldermask,Bot*
G04 #@! TF.FilePolarity,Negative*
%FSLAX46Y46*%
G04 Gerber Fmt 4.6, Leading zero omitted, Abs format (unit mm)*
G04 Created by KiCad (PCBNEW 5.0.1) date Sat 05 Jan 2019 04:33:49 PM CET*
%MOMM*%
%LPD*%
G01*
G04 APERTURE LIST*
%ADD10C,0.100000*%
G04 APERTURE END LIST*
D10*
G36*
X29157396Y-74594358D02*
X29393980Y-74692354D01*
X29606905Y-74834626D01*
X29787974Y-75015695D01*
X29930246Y-75228620D01*
X30028242Y-75465204D01*
X30078200Y-75716360D01*
X30078200Y-75972440D01*
X30028242Y-76223596D01*
X29930246Y-76460180D01*
X29787974Y-76673105D01*
X29606905Y-76854174D01*
X29393980Y-76996446D01*
X29157396Y-77094442D01*
X28906240Y-77144400D01*
X28650160Y-77144400D01*
X28399004Y-77094442D01*
X28162420Y-76996446D01*
X27949495Y-76854174D01*
X27768426Y-76673105D01*
X27626154Y-76460180D01*
X27528158Y-76223596D01*
X27478200Y-75972440D01*
X27478200Y-75716360D01*
X27528158Y-75465204D01*
X27626154Y-75228620D01*
X27768426Y-75015695D01*
X27949495Y-74834626D01*
X28162420Y-74692354D01*
X28399004Y-74594358D01*
X28650160Y-74544400D01*
X28906240Y-74544400D01*
X29157396Y-74594358D01*
X29157396Y-74594358D01*
G37*
G36*
X65221835Y-72470029D02*
X65318434Y-72489244D01*
X65591417Y-72602317D01*
X65833820Y-72764287D01*
X65837097Y-72766476D01*
X66046024Y-72975403D01*
X66046026Y-72975406D01*
X66210183Y-73221083D01*
X66323256Y-73494066D01*
X66380900Y-73783863D01*
X66380900Y-74079337D01*
X66323256Y-74369134D01*
X66210183Y-74642117D01*
X66176615Y-74692355D01*
X66046024Y-74887797D01*
X65837097Y-75096724D01*
X65837094Y-75096726D01*
X65591417Y-75260883D01*
X65318434Y-75373956D01*
X65221835Y-75393171D01*
X65028639Y-75431600D01*
X64733161Y-75431600D01*
X64539965Y-75393171D01*
X64443366Y-75373956D01*
X64170383Y-75260883D01*
X63924706Y-75096726D01*
X63924703Y-75096724D01*
X63715776Y-74887797D01*
X63585185Y-74692355D01*
X63551617Y-74642117D01*
X63438544Y-74369134D01*
X63380900Y-74079337D01*
X63380900Y-73783863D01*
X63438544Y-73494066D01*
X63551617Y-73221083D01*
X63715774Y-72975406D01*
X63715776Y-72975403D01*
X63924703Y-72766476D01*
X63927980Y-72764287D01*
X64170383Y-72602317D01*
X64443366Y-72489244D01*
X64539965Y-72470029D01*
X64733161Y-72431600D01*
X65028639Y-72431600D01*
X65221835Y-72470029D01*
X65221835Y-72470029D01*
G37*
G36*
X70221835Y-72470029D02*
X70318434Y-72489244D01*
X70591417Y-72602317D01*
X70833820Y-72764287D01*
X70837097Y-72766476D01*
X71046024Y-72975403D01*
X71046026Y-72975406D01*
X71210183Y-73221083D01*
X71323256Y-73494066D01*
X71380900Y-73783863D01*
X71380900Y-74079337D01*
X71323256Y-74369134D01*
X71210183Y-74642117D01*
X71176615Y-74692355D01*
X71046024Y-74887797D01*
X70837097Y-75096724D01*
X70837094Y-75096726D01*
X70591417Y-75260883D01*
X70318434Y-75373956D01*
X70221835Y-75393171D01*
X70028639Y-75431600D01*
X69733161Y-75431600D01*
X69539965Y-75393171D01*
X69443366Y-75373956D01*
X69170383Y-75260883D01*
X68924706Y-75096726D01*
X68924703Y-75096724D01*
X68715776Y-74887797D01*
X68585185Y-74692355D01*
X68551617Y-74642117D01*
X68438544Y-74369134D01*
X68380900Y-74079337D01*
X68380900Y-73783863D01*
X68438544Y-73494066D01*
X68551617Y-73221083D01*
X68715774Y-72975406D01*
X68715776Y-72975403D01*
X68924703Y-72766476D01*
X68927980Y-72764287D01*
X69170383Y-72602317D01*
X69443366Y-72489244D01*
X69539965Y-72470029D01*
X69733161Y-72431600D01*
X70028639Y-72431600D01*
X70221835Y-72470029D01*
X70221835Y-72470029D01*
G37*
G36*
X56380900Y-75431600D02*
X53380900Y-75431600D01*
X53380900Y-72431600D01*
X56380900Y-72431600D01*
X56380900Y-75431600D01*
X56380900Y-75431600D01*
G37*
G36*
X60221835Y-72470029D02*
X60318434Y-72489244D01*
X60591417Y-72602317D01*
X60833820Y-72764287D01*
X60837097Y-72766476D01*
X61046024Y-72975403D01*
X61046026Y-72975406D01*
X61210183Y-73221083D01*
X61323256Y-73494066D01*
X61380900Y-73783863D01*
X61380900Y-74079337D01*
X61323256Y-74369134D01*
X61210183Y-74642117D01*
X61176615Y-74692355D01*
X61046024Y-74887797D01*
X60837097Y-75096724D01*
X60837094Y-75096726D01*
X60591417Y-75260883D01*
X60318434Y-75373956D01*
X60221835Y-75393171D01*
X60028639Y-75431600D01*
X59733161Y-75431600D01*
X59539965Y-75393171D01*
X59443366Y-75373956D01*
X59170383Y-75260883D01*
X58924706Y-75096726D01*
X58924703Y-75096724D01*
X58715776Y-74887797D01*
X58585185Y-74692355D01*
X58551617Y-74642117D01*
X58438544Y-74369134D01*
X58380900Y-74079337D01*
X58380900Y-73783863D01*
X58438544Y-73494066D01*
X58551617Y-73221083D01*
X58715774Y-72975406D01*
X58715776Y-72975403D01*
X58924703Y-72766476D01*
X58927980Y-72764287D01*
X59170383Y-72602317D01*
X59443366Y-72489244D01*
X59539965Y-72470029D01*
X59733161Y-72431600D01*
X60028639Y-72431600D01*
X60221835Y-72470029D01*
X60221835Y-72470029D01*
G37*
G36*
X57381300Y-70133340D02*
X56181300Y-70133340D01*
X56181300Y-68833340D01*
X57381300Y-68833340D01*
X57381300Y-70133340D01*
X57381300Y-70133340D01*
G37*
G36*
X62431300Y-70083340D02*
X61231300Y-70083340D01*
X61231300Y-68783340D01*
X62431300Y-68783340D01*
X62431300Y-70083340D01*
X62431300Y-70083340D01*
G37*
G36*
X67483000Y-70033340D02*
X66283000Y-70033340D01*
X66283000Y-68733340D01*
X67483000Y-68733340D01*
X67483000Y-70033340D01*
X67483000Y-70033340D01*
G37*
G36*
X58331300Y-68133340D02*
X57131300Y-68133340D01*
X57131300Y-66833340D01*
X58331300Y-66833340D01*
X58331300Y-68133340D01*
X58331300Y-68133340D01*
G37*
G36*
X56431300Y-68133340D02*
X55231300Y-68133340D01*
X55231300Y-66833340D01*
X56431300Y-66833340D01*
X56431300Y-68133340D01*
X56431300Y-68133340D01*
G37*
G36*
X61481300Y-68083340D02*
X60281300Y-68083340D01*
X60281300Y-66783340D01*
X61481300Y-66783340D01*
X61481300Y-68083340D01*
X61481300Y-68083340D01*
G37*
G36*
X63381300Y-68083340D02*
X62181300Y-68083340D01*
X62181300Y-66783340D01*
X63381300Y-66783340D01*
X63381300Y-68083340D01*
X63381300Y-68083340D01*
G37*
G36*
X66533000Y-68033340D02*
X65333000Y-68033340D01*
X65333000Y-66733340D01*
X66533000Y-66733340D01*
X66533000Y-68033340D01*
X66533000Y-68033340D01*
G37*
G36*
X68433000Y-68033340D02*
X67233000Y-68033340D01*
X67233000Y-66733340D01*
X68433000Y-66733340D01*
X68433000Y-68033340D01*
X68433000Y-68033340D01*
G37*
G36*
X71566207Y-65886596D02*
X71643336Y-65894193D01*
X71775287Y-65934220D01*
X71841263Y-65954233D01*
X72023672Y-66051733D01*
X72183554Y-66182946D01*
X72314767Y-66342828D01*
X72412267Y-66525237D01*
X72412267Y-66525238D01*
X72472307Y-66723164D01*
X72492580Y-66929000D01*
X72472307Y-67134836D01*
X72432280Y-67266787D01*
X72412267Y-67332763D01*
X72314767Y-67515172D01*
X72183554Y-67675054D01*
X72023672Y-67806267D01*
X71841263Y-67903767D01*
X71775287Y-67923780D01*
X71643336Y-67963807D01*
X71566207Y-67971404D01*
X71489080Y-67979000D01*
X71385920Y-67979000D01*
X71308793Y-67971404D01*
X71231664Y-67963807D01*
X71099713Y-67923780D01*
X71033737Y-67903767D01*
X70851328Y-67806267D01*
X70691446Y-67675054D01*
X70560233Y-67515172D01*
X70462733Y-67332763D01*
X70442720Y-67266787D01*
X70402693Y-67134836D01*
X70382420Y-66929000D01*
X70402693Y-66723164D01*
X70462733Y-66525238D01*
X70462733Y-66525237D01*
X70560233Y-66342828D01*
X70691446Y-66182946D01*
X70851328Y-66051733D01*
X71033737Y-65954233D01*
X71099713Y-65934220D01*
X71231664Y-65894193D01*
X71308793Y-65886596D01*
X71385920Y-65879000D01*
X71489080Y-65879000D01*
X71566207Y-65886596D01*
X71566207Y-65886596D01*
G37*
G36*
X71566207Y-63346597D02*
X71643336Y-63354193D01*
X71775287Y-63394220D01*
X71841263Y-63414233D01*
X72023672Y-63511733D01*
X72183554Y-63642946D01*
X72314767Y-63802828D01*
X72412267Y-63985237D01*
X72412267Y-63985238D01*
X72472307Y-64183164D01*
X72492580Y-64389000D01*
X72472307Y-64594836D01*
X72432280Y-64726787D01*
X72412267Y-64792763D01*
X72314767Y-64975172D01*
X72183554Y-65135054D01*
X72023672Y-65266267D01*
X71841263Y-65363767D01*
X71775287Y-65383780D01*
X71643336Y-65423807D01*
X71566207Y-65431403D01*
X71489080Y-65439000D01*
X71385920Y-65439000D01*
X71308793Y-65431403D01*
X71231664Y-65423807D01*
X71099713Y-65383780D01*
X71033737Y-65363767D01*
X70851328Y-65266267D01*
X70691446Y-65135054D01*
X70560233Y-64975172D01*
X70462733Y-64792763D01*
X70442720Y-64726787D01*
X70402693Y-64594836D01*
X70382420Y-64389000D01*
X70402693Y-64183164D01*
X70462733Y-63985238D01*
X70462733Y-63985237D01*
X70560233Y-63802828D01*
X70691446Y-63642946D01*
X70851328Y-63511733D01*
X71033737Y-63414233D01*
X71099713Y-63394220D01*
X71231664Y-63354193D01*
X71308793Y-63346597D01*
X71385920Y-63339000D01*
X71489080Y-63339000D01*
X71566207Y-63346597D01*
X71566207Y-63346597D01*
G37*
G36*
X71566207Y-60806596D02*
X71643336Y-60814193D01*
X71775287Y-60854220D01*
X71841263Y-60874233D01*
X72023672Y-60971733D01*
X72183554Y-61102946D01*
X72314767Y-61262828D01*
X72412267Y-61445237D01*
X72412267Y-61445238D01*
X72472307Y-61643164D01*
X72492580Y-61849000D01*
X72472307Y-62054836D01*
X72432280Y-62186787D01*
X72412267Y-62252763D01*
X72314767Y-62435172D01*
X72183554Y-62595054D01*
X72023672Y-62726267D01*
X71841263Y-62823767D01*
X71775287Y-62843780D01*
X71643336Y-62883807D01*
X71566207Y-62891403D01*
X71489080Y-62899000D01*
X71385920Y-62899000D01*
X71308793Y-62891403D01*
X71231664Y-62883807D01*
X71099713Y-62843780D01*
X71033737Y-62823767D01*
X70851328Y-62726267D01*
X70691446Y-62595054D01*
X70560233Y-62435172D01*
X70462733Y-62252763D01*
X70442720Y-62186787D01*
X70402693Y-62054836D01*
X70382420Y-61849000D01*
X70402693Y-61643164D01*
X70462733Y-61445238D01*
X70462733Y-61445237D01*
X70560233Y-61262828D01*
X70691446Y-61102946D01*
X70851328Y-60971733D01*
X71033737Y-60874233D01*
X71099713Y-60854220D01*
X71231664Y-60814193D01*
X71308793Y-60806596D01*
X71385920Y-60799000D01*
X71489080Y-60799000D01*
X71566207Y-60806596D01*
X71566207Y-60806596D01*
G37*
G36*
X71566207Y-58266597D02*
X71643336Y-58274193D01*
X71775287Y-58314220D01*
X71841263Y-58334233D01*
X72023672Y-58431733D01*
X72183554Y-58562946D01*
X72314767Y-58722828D01*
X72412267Y-58905237D01*
X72412267Y-58905238D01*
X72472307Y-59103164D01*
X72492580Y-59309000D01*
X72472307Y-59514836D01*
X72432280Y-59646787D01*
X72412267Y-59712763D01*
X72314767Y-59895172D01*
X72183554Y-60055054D01*
X72023672Y-60186267D01*
X71841263Y-60283767D01*
X71775287Y-60303780D01*
X71643336Y-60343807D01*
X71566207Y-60351403D01*
X71489080Y-60359000D01*
X71385920Y-60359000D01*
X71308793Y-60351403D01*
X71231664Y-60343807D01*
X71099713Y-60303780D01*
X71033737Y-60283767D01*
X70851328Y-60186267D01*
X70691446Y-60055054D01*
X70560233Y-59895172D01*
X70462733Y-59712763D01*
X70442720Y-59646787D01*
X70402693Y-59514836D01*
X70382420Y-59309000D01*
X70402693Y-59103164D01*
X70462733Y-58905238D01*
X70462733Y-58905237D01*
X70560233Y-58722828D01*
X70691446Y-58562946D01*
X70851328Y-58431733D01*
X71033737Y-58334233D01*
X71099713Y-58314220D01*
X71231664Y-58274193D01*
X71308793Y-58266597D01*
X71385920Y-58259000D01*
X71489080Y-58259000D01*
X71566207Y-58266597D01*
X71566207Y-58266597D01*
G37*
G36*
X72487500Y-57819000D02*
X70387500Y-57819000D01*
X70387500Y-55719000D01*
X72487500Y-55719000D01*
X72487500Y-57819000D01*
X72487500Y-57819000D01*
G37*
G36*
X56658770Y-51746972D02*
X56774689Y-51770029D01*
X56956678Y-51845411D01*
X57120463Y-51954849D01*
X57259751Y-52094137D01*
X57369189Y-52257922D01*
X57444571Y-52439911D01*
X57483000Y-52633109D01*
X57483000Y-52830091D01*
X57444571Y-53023289D01*
X57369189Y-53205278D01*
X57259751Y-53369063D01*
X57120463Y-53508351D01*
X56956678Y-53617789D01*
X56774689Y-53693171D01*
X56658770Y-53716228D01*
X56581493Y-53731600D01*
X56384507Y-53731600D01*
X56307230Y-53716228D01*
X56191311Y-53693171D01*
X56009322Y-53617789D01*
X55845537Y-53508351D01*
X55706249Y-53369063D01*
X55596811Y-53205278D01*
X55521429Y-53023289D01*
X55483000Y-52830091D01*
X55483000Y-52633109D01*
X55521429Y-52439911D01*
X55596811Y-52257922D01*
X55706249Y-52094137D01*
X55845537Y-51954849D01*
X56009322Y-51845411D01*
X56191311Y-51770029D01*
X56307230Y-51746972D01*
X56384507Y-51731600D01*
X56581493Y-51731600D01*
X56658770Y-51746972D01*
X56658770Y-51746972D01*
G37*
G36*
X57483000Y-51231600D02*
X55483000Y-51231600D01*
X55483000Y-49231600D01*
X57483000Y-49231600D01*
X57483000Y-51231600D01*
X57483000Y-51231600D01*
G37*
G36*
X73958770Y-48646972D02*
X74074689Y-48670029D01*
X74256678Y-48745411D01*
X74420463Y-48854849D01*
X74559751Y-48994137D01*
X74669189Y-49157922D01*
X74744571Y-49339911D01*
X74783000Y-49533109D01*
X74783000Y-49730091D01*
X74744571Y-49923289D01*
X74669189Y-50105278D01*
X74559751Y-50269063D01*
X74420463Y-50408351D01*
X74256678Y-50517789D01*
X74074689Y-50593171D01*
X73958770Y-50616228D01*
X73881493Y-50631600D01*
X73684507Y-50631600D01*
X73607230Y-50616228D01*
X73491311Y-50593171D01*
X73309322Y-50517789D01*
X73145537Y-50408351D01*
X73006249Y-50269063D01*
X72896811Y-50105278D01*
X72821429Y-49923289D01*
X72783000Y-49730091D01*
X72783000Y-49533109D01*
X72821429Y-49339911D01*
X72896811Y-49157922D01*
X73006249Y-48994137D01*
X73145537Y-48854849D01*
X73309322Y-48745411D01*
X73491311Y-48670029D01*
X73607230Y-48646972D01*
X73684507Y-48631600D01*
X73881493Y-48631600D01*
X73958770Y-48646972D01*
X73958770Y-48646972D01*
G37*
G36*
X71283000Y-50631600D02*
X69283000Y-50631600D01*
X69283000Y-48631600D01*
X71283000Y-48631600D01*
X71283000Y-50631600D01*
X71283000Y-50631600D01*
G37*
G36*
X32304700Y-44407800D02*
X30204700Y-44407800D01*
X30204700Y-42307800D01*
X32304700Y-42307800D01*
X32304700Y-44407800D01*
X32304700Y-44407800D01*
G37*
G36*
X73583000Y-42131600D02*
X70583000Y-42131600D01*
X70583000Y-39131600D01*
X73583000Y-39131600D01*
X73583000Y-42131600D01*
X73583000Y-42131600D01*
G37*
G36*
X31383407Y-39775396D02*
X31460536Y-39782993D01*
X31592487Y-39823020D01*
X31658463Y-39843033D01*
X31840872Y-39940533D01*
X32000754Y-40071746D01*
X32131967Y-40231628D01*
X32229467Y-40414037D01*
X32229467Y-40414038D01*
X32289507Y-40611964D01*
X32309780Y-40817800D01*
X32289507Y-41023636D01*
X32249480Y-41155587D01*
X32229467Y-41221563D01*
X32131967Y-41403972D01*
X32000754Y-41563854D01*
X31840872Y-41695067D01*
X31658463Y-41792567D01*
X31592487Y-41812580D01*
X31460536Y-41852607D01*
X31383407Y-41860204D01*
X31306280Y-41867800D01*
X31203120Y-41867800D01*
X31125993Y-41860204D01*
X31048864Y-41852607D01*
X30916913Y-41812580D01*
X30850937Y-41792567D01*
X30668528Y-41695067D01*
X30508646Y-41563854D01*
X30377433Y-41403972D01*
X30279933Y-41221563D01*
X30259920Y-41155587D01*
X30219893Y-41023636D01*
X30199620Y-40817800D01*
X30219893Y-40611964D01*
X30279933Y-40414038D01*
X30279933Y-40414037D01*
X30377433Y-40231628D01*
X30508646Y-40071746D01*
X30668528Y-39940533D01*
X30850937Y-39843033D01*
X30916913Y-39823020D01*
X31048864Y-39782993D01*
X31125993Y-39775396D01*
X31203120Y-39767800D01*
X31306280Y-39767800D01*
X31383407Y-39775396D01*
X31383407Y-39775396D01*
G37*
G36*
X65183000Y-40331600D02*
X62583000Y-40331600D01*
X62583000Y-37731600D01*
X65183000Y-37731600D01*
X65183000Y-40331600D01*
X65183000Y-40331600D01*
G37*
G36*
X53977845Y-37750410D02*
X54222896Y-37824745D01*
X54448736Y-37945460D01*
X54646687Y-38107913D01*
X54809140Y-38305864D01*
X54929855Y-38531704D01*
X55004190Y-38776755D01*
X55029290Y-39031600D01*
X55004190Y-39286445D01*
X54929855Y-39531496D01*
X54809140Y-39757336D01*
X54646687Y-39955287D01*
X54448736Y-40117740D01*
X54222896Y-40238455D01*
X53977845Y-40312790D01*
X53786864Y-40331600D01*
X53659136Y-40331600D01*
X53468155Y-40312790D01*
X53223104Y-40238455D01*
X52997264Y-40117740D01*
X52799313Y-39955287D01*
X52636860Y-39757336D01*
X52516145Y-39531496D01*
X52441810Y-39286445D01*
X52416710Y-39031600D01*
X52441810Y-38776755D01*
X52516145Y-38531704D01*
X52636860Y-38305864D01*
X52799313Y-38107913D01*
X52997264Y-37945460D01*
X53223104Y-37824745D01*
X53468155Y-37750410D01*
X53659136Y-37731600D01*
X53786864Y-37731600D01*
X53977845Y-37750410D01*
X53977845Y-37750410D01*
G37*
G36*
X31383407Y-37235396D02*
X31460536Y-37242993D01*
X31592487Y-37283020D01*
X31658463Y-37303033D01*
X31840872Y-37400533D01*
X32000754Y-37531746D01*
X32131967Y-37691628D01*
X32229467Y-37874037D01*
X32229467Y-37874038D01*
X32289507Y-38071964D01*
X32309780Y-38277800D01*
X32289507Y-38483636D01*
X32249480Y-38615587D01*
X32229467Y-38681563D01*
X32131967Y-38863972D01*
X32000754Y-39023854D01*
X31840872Y-39155067D01*
X31658463Y-39252567D01*
X31592487Y-39272580D01*
X31460536Y-39312607D01*
X31383407Y-39320203D01*
X31306280Y-39327800D01*
X31203120Y-39327800D01*
X31125993Y-39320203D01*
X31048864Y-39312607D01*
X30916913Y-39272580D01*
X30850937Y-39252567D01*
X30668528Y-39155067D01*
X30508646Y-39023854D01*
X30377433Y-38863972D01*
X30279933Y-38681563D01*
X30259920Y-38615587D01*
X30219893Y-38483636D01*
X30199620Y-38277800D01*
X30219893Y-38071964D01*
X30279933Y-37874038D01*
X30279933Y-37874037D01*
X30377433Y-37691628D01*
X30508646Y-37531746D01*
X30668528Y-37400533D01*
X30850937Y-37303033D01*
X30916913Y-37283020D01*
X31048864Y-37242993D01*
X31125993Y-37235396D01*
X31203120Y-37227800D01*
X31306280Y-37227800D01*
X31383407Y-37235396D01*
X31383407Y-37235396D01*
G37*
G36*
X72423935Y-34170029D02*
X72520534Y-34189244D01*
X72793517Y-34302317D01*
X73035920Y-34464287D01*
X73039197Y-34466476D01*
X73248124Y-34675403D01*
X73248126Y-34675406D01*
X73412283Y-34921083D01*
X73507778Y-35151628D01*
X73525356Y-35194067D01*
X73583000Y-35483861D01*
X73583000Y-35779339D01*
X73525356Y-36069133D01*
X73412284Y-36342115D01*
X73248124Y-36587797D01*
X73039197Y-36796724D01*
X73039194Y-36796726D01*
X72793517Y-36960883D01*
X72520534Y-37073956D01*
X72423935Y-37093171D01*
X72230739Y-37131600D01*
X71935261Y-37131600D01*
X71742065Y-37093171D01*
X71645466Y-37073956D01*
X71372483Y-36960883D01*
X71126806Y-36796726D01*
X71126803Y-36796724D01*
X70917876Y-36587797D01*
X70753716Y-36342115D01*
X70640644Y-36069133D01*
X70583000Y-35779339D01*
X70583000Y-35483861D01*
X70640644Y-35194067D01*
X70658223Y-35151628D01*
X70753717Y-34921083D01*
X70917874Y-34675406D01*
X70917876Y-34675403D01*
X71126803Y-34466476D01*
X71130080Y-34464287D01*
X71372483Y-34302317D01*
X71645466Y-34189244D01*
X71742065Y-34170029D01*
X71935261Y-34131600D01*
X72230739Y-34131600D01*
X72423935Y-34170029D01*
X72423935Y-34170029D01*
G37*
G36*
X31383407Y-34695396D02*
X31460536Y-34702993D01*
X31592487Y-34743020D01*
X31658463Y-34763033D01*
X31840872Y-34860533D01*
X32000754Y-34991746D01*
X32131967Y-35151628D01*
X32229467Y-35334037D01*
X32229467Y-35334038D01*
X32289507Y-35531964D01*
X32309780Y-35737800D01*
X32289507Y-35943636D01*
X32251438Y-36069133D01*
X32229467Y-36141563D01*
X32131967Y-36323972D01*
X32000754Y-36483854D01*
X31840872Y-36615067D01*
X31658463Y-36712567D01*
X31592487Y-36732580D01*
X31460536Y-36772607D01*
X31383407Y-36780203D01*
X31306280Y-36787800D01*
X31203120Y-36787800D01*
X31125993Y-36780203D01*
X31048864Y-36772607D01*
X30916913Y-36732580D01*
X30850937Y-36712567D01*
X30668528Y-36615067D01*
X30508646Y-36483854D01*
X30377433Y-36323972D01*
X30279933Y-36141563D01*
X30257962Y-36069133D01*
X30219893Y-35943636D01*
X30199620Y-35737800D01*
X30219893Y-35531964D01*
X30279933Y-35334038D01*
X30279933Y-35334037D01*
X30377433Y-35151628D01*
X30508646Y-34991746D01*
X30668528Y-34860533D01*
X30850937Y-34763033D01*
X30916913Y-34743020D01*
X31048864Y-34702993D01*
X31125993Y-34695396D01*
X31203120Y-34687800D01*
X31306280Y-34687800D01*
X31383407Y-34695396D01*
X31383407Y-34695396D01*
G37*
G36*
X31383407Y-32155396D02*
X31460536Y-32162993D01*
X31592487Y-32203020D01*
X31658463Y-32223033D01*
X31840872Y-32320533D01*
X32000754Y-32451746D01*
X32131967Y-32611628D01*
X32229467Y-32794037D01*
X32229467Y-32794038D01*
X32289507Y-32991964D01*
X32309780Y-33197800D01*
X32289507Y-33403636D01*
X32249480Y-33535587D01*
X32229467Y-33601563D01*
X32131967Y-33783972D01*
X32000754Y-33943854D01*
X31840872Y-34075067D01*
X31658463Y-34172567D01*
X31603485Y-34189244D01*
X31460536Y-34232607D01*
X31383407Y-34240203D01*
X31306280Y-34247800D01*
X31203120Y-34247800D01*
X31125993Y-34240203D01*
X31048864Y-34232607D01*
X30905915Y-34189244D01*
X30850937Y-34172567D01*
X30668528Y-34075067D01*
X30508646Y-33943854D01*
X30377433Y-33783972D01*
X30279933Y-33601563D01*
X30259920Y-33535587D01*
X30219893Y-33403636D01*
X30199620Y-33197800D01*
X30219893Y-32991964D01*
X30279933Y-32794038D01*
X30279933Y-32794037D01*
X30377433Y-32611628D01*
X30508646Y-32451746D01*
X30668528Y-32320533D01*
X30850937Y-32223033D01*
X30916913Y-32203020D01*
X31048864Y-32162993D01*
X31125993Y-32155396D01*
X31203120Y-32147800D01*
X31306280Y-32147800D01*
X31383407Y-32155396D01*
X31383407Y-32155396D01*
G37*
G36*
X34498800Y-32648160D02*
X33298800Y-32648160D01*
X33298800Y-31348160D01*
X34498800Y-31348160D01*
X34498800Y-32648160D01*
X34498800Y-32648160D01*
G37*
G36*
X36398800Y-32648160D02*
X35198800Y-32648160D01*
X35198800Y-31348160D01*
X36398800Y-31348160D01*
X36398800Y-32648160D01*
X36398800Y-32648160D01*
G37*
G36*
X63492900Y-32561800D02*
X62292900Y-32561800D01*
X62292900Y-31261800D01*
X63492900Y-31261800D01*
X63492900Y-32561800D01*
X63492900Y-32561800D01*
G37*
G36*
X65392900Y-32561800D02*
X64192900Y-32561800D01*
X64192900Y-31261800D01*
X65392900Y-31261800D01*
X65392900Y-32561800D01*
X65392900Y-32561800D01*
G37*
G36*
X41341640Y-32559260D02*
X40141640Y-32559260D01*
X40141640Y-31259260D01*
X41341640Y-31259260D01*
X41341640Y-32559260D01*
X41341640Y-32559260D01*
G37*
G36*
X39441640Y-32559260D02*
X38241640Y-32559260D01*
X38241640Y-31259260D01*
X39441640Y-31259260D01*
X39441640Y-32559260D01*
X39441640Y-32559260D01*
G37*
G36*
X45141600Y-32551540D02*
X43941600Y-32551540D01*
X43941600Y-31251540D01*
X45141600Y-31251540D01*
X45141600Y-32551540D01*
X45141600Y-32551540D01*
G37*
G36*
X47041600Y-32551540D02*
X45841600Y-32551540D01*
X45841600Y-31251540D01*
X47041600Y-31251540D01*
X47041600Y-32551540D01*
X47041600Y-32551540D01*
G37*
G36*
X60384180Y-32531600D02*
X59184180Y-32531600D01*
X59184180Y-31231600D01*
X60384180Y-31231600D01*
X60384180Y-32531600D01*
X60384180Y-32531600D01*
G37*
G36*
X58484180Y-32531600D02*
X57284180Y-32531600D01*
X57284180Y-31231600D01*
X58484180Y-31231600D01*
X58484180Y-32531600D01*
X58484180Y-32531600D01*
G37*
G36*
X55433000Y-32531320D02*
X54233000Y-32531320D01*
X54233000Y-31231320D01*
X55433000Y-31231320D01*
X55433000Y-32531320D01*
X55433000Y-32531320D01*
G37*
G36*
X53533000Y-32531320D02*
X52333000Y-32531320D01*
X52333000Y-31231320D01*
X53533000Y-31231320D01*
X53533000Y-32531320D01*
X53533000Y-32531320D01*
G37*
G36*
X35448800Y-30648160D02*
X34248800Y-30648160D01*
X34248800Y-29348160D01*
X35448800Y-29348160D01*
X35448800Y-30648160D01*
X35448800Y-30648160D01*
G37*
G36*
X64442900Y-30561800D02*
X63242900Y-30561800D01*
X63242900Y-29261800D01*
X64442900Y-29261800D01*
X64442900Y-30561800D01*
X64442900Y-30561800D01*
G37*
G36*
X40391640Y-30559260D02*
X39191640Y-30559260D01*
X39191640Y-29259260D01*
X40391640Y-29259260D01*
X40391640Y-30559260D01*
X40391640Y-30559260D01*
G37*
G36*
X46091600Y-30551540D02*
X44891600Y-30551540D01*
X44891600Y-29251540D01*
X46091600Y-29251540D01*
X46091600Y-30551540D01*
X46091600Y-30551540D01*
G37*
G36*
X59434180Y-30531600D02*
X58234180Y-30531600D01*
X58234180Y-29231600D01*
X59434180Y-29231600D01*
X59434180Y-30531600D01*
X59434180Y-30531600D01*
G37*
G36*
X54483000Y-30531320D02*
X53283000Y-30531320D01*
X53283000Y-29231320D01*
X54483000Y-29231320D01*
X54483000Y-30531320D01*
X54483000Y-30531320D01*
G37*
G36*
X38223935Y-25370029D02*
X38320534Y-25389244D01*
X38513560Y-25469198D01*
X38552302Y-25485245D01*
X38593517Y-25502317D01*
X38714629Y-25583242D01*
X38839197Y-25666476D01*
X39048124Y-25875403D01*
X39212284Y-26121085D01*
X39325356Y-26394067D01*
X39383000Y-26683861D01*
X39383000Y-26979339D01*
X39325356Y-27269133D01*
X39212284Y-27542115D01*
X39048124Y-27787797D01*
X38839197Y-27996724D01*
X38839194Y-27996726D01*
X38593517Y-28160883D01*
X38320534Y-28273956D01*
X38223935Y-28293171D01*
X38030739Y-28331600D01*
X37735261Y-28331600D01*
X37542065Y-28293171D01*
X37445466Y-28273956D01*
X37172483Y-28160883D01*
X36926806Y-27996726D01*
X36926803Y-27996724D01*
X36717876Y-27787797D01*
X36553716Y-27542115D01*
X36440644Y-27269133D01*
X36383000Y-26979339D01*
X36383000Y-26683861D01*
X36440644Y-26394067D01*
X36553716Y-26121085D01*
X36717876Y-25875403D01*
X36926803Y-25666476D01*
X37051371Y-25583242D01*
X37172483Y-25502317D01*
X37213699Y-25485245D01*
X37252440Y-25469198D01*
X37445466Y-25389244D01*
X37542065Y-25370029D01*
X37735261Y-25331600D01*
X38030739Y-25331600D01*
X38223935Y-25370029D01*
X38223935Y-25370029D01*
G37*
G36*
X33223935Y-25370029D02*
X33320534Y-25389244D01*
X33513560Y-25469198D01*
X33552302Y-25485245D01*
X33593517Y-25502317D01*
X33714629Y-25583242D01*
X33839197Y-25666476D01*
X34048124Y-25875403D01*
X34212284Y-26121085D01*
X34325356Y-26394067D01*
X34383000Y-26683861D01*
X34383000Y-26979339D01*
X34325356Y-27269133D01*
X34212284Y-27542115D01*
X34048124Y-27787797D01*
X33839197Y-27996724D01*
X33839194Y-27996726D01*
X33593517Y-28160883D01*
X33320534Y-28273956D01*
X33223935Y-28293171D01*
X33030739Y-28331600D01*
X32735261Y-28331600D01*
X32542065Y-28293171D01*
X32445466Y-28273956D01*
X32172483Y-28160883D01*
X31926806Y-27996726D01*
X31926803Y-27996724D01*
X31717876Y-27787797D01*
X31553716Y-27542115D01*
X31440644Y-27269133D01*
X31383000Y-26979339D01*
X31383000Y-26683861D01*
X31440644Y-26394067D01*
X31553716Y-26121085D01*
X31717876Y-25875403D01*
X31926803Y-25666476D01*
X32051371Y-25583242D01*
X32172483Y-25502317D01*
X32213699Y-25485245D01*
X32252440Y-25469198D01*
X32445466Y-25389244D01*
X32542065Y-25370029D01*
X32735261Y-25331600D01*
X33030739Y-25331600D01*
X33223935Y-25370029D01*
X33223935Y-25370029D01*
G37*
G36*
X43223935Y-25370029D02*
X43320534Y-25389244D01*
X43513560Y-25469198D01*
X43552302Y-25485245D01*
X43593517Y-25502317D01*
X43714629Y-25583242D01*
X43839197Y-25666476D01*
X44048124Y-25875403D01*
X44212284Y-26121085D01*
X44325356Y-26394067D01*
X44383000Y-26683861D01*
X44383000Y-26979339D01*
X44325356Y-27269133D01*
X44212284Y-27542115D01*
X44048124Y-27787797D01*
X43839197Y-27996724D01*
X43839194Y-27996726D01*
X43593517Y-28160883D01*
X43320534Y-28273956D01*
X43223935Y-28293171D01*
X43030739Y-28331600D01*
X42735261Y-28331600D01*
X42542065Y-28293171D01*
X42445466Y-28273956D01*
X42172483Y-28160883D01*
X41926806Y-27996726D01*
X41926803Y-27996724D01*
X41717876Y-27787797D01*
X41553716Y-27542115D01*
X41440644Y-27269133D01*
X41383000Y-26979339D01*
X41383000Y-26683861D01*
X41440644Y-26394067D01*
X41553716Y-26121085D01*
X41717876Y-25875403D01*
X41926803Y-25666476D01*
X42051371Y-25583242D01*
X42172483Y-25502317D01*
X42213699Y-25485245D01*
X42252440Y-25469198D01*
X42445466Y-25389244D01*
X42542065Y-25370029D01*
X42735261Y-25331600D01*
X43030739Y-25331600D01*
X43223935Y-25370029D01*
X43223935Y-25370029D01*
G37*
G36*
X49383000Y-28331600D02*
X46383000Y-28331600D01*
X46383000Y-25331600D01*
X49383000Y-25331600D01*
X49383000Y-28331600D01*
X49383000Y-28331600D01*
G37*
G36*
X54323935Y-25370029D02*
X54420534Y-25389244D01*
X54613560Y-25469198D01*
X54652302Y-25485245D01*
X54693517Y-25502317D01*
X54814629Y-25583242D01*
X54939197Y-25666476D01*
X55148124Y-25875403D01*
X55312284Y-26121085D01*
X55425356Y-26394067D01*
X55483000Y-26683861D01*
X55483000Y-26979339D01*
X55425356Y-27269133D01*
X55312284Y-27542115D01*
X55148124Y-27787797D01*
X54939197Y-27996724D01*
X54939194Y-27996726D01*
X54693517Y-28160883D01*
X54420534Y-28273956D01*
X54323935Y-28293171D01*
X54130739Y-28331600D01*
X53835261Y-28331600D01*
X53642065Y-28293171D01*
X53545466Y-28273956D01*
X53272483Y-28160883D01*
X53026806Y-27996726D01*
X53026803Y-27996724D01*
X52817876Y-27787797D01*
X52653716Y-27542115D01*
X52540644Y-27269133D01*
X52483000Y-26979339D01*
X52483000Y-26683861D01*
X52540644Y-26394067D01*
X52653716Y-26121085D01*
X52817876Y-25875403D01*
X53026803Y-25666476D01*
X53151371Y-25583242D01*
X53272483Y-25502317D01*
X53313699Y-25485245D01*
X53352440Y-25469198D01*
X53545466Y-25389244D01*
X53642065Y-25370029D01*
X53835261Y-25331600D01*
X54130739Y-25331600D01*
X54323935Y-25370029D01*
X54323935Y-25370029D01*
G37*
G36*
X59323935Y-25370029D02*
X59420534Y-25389244D01*
X59613560Y-25469198D01*
X59652302Y-25485245D01*
X59693517Y-25502317D01*
X59814629Y-25583242D01*
X59939197Y-25666476D01*
X60148124Y-25875403D01*
X60312284Y-26121085D01*
X60425356Y-26394067D01*
X60483000Y-26683861D01*
X60483000Y-26979339D01*
X60425356Y-27269133D01*
X60312284Y-27542115D01*
X60148124Y-27787797D01*
X59939197Y-27996724D01*
X59939194Y-27996726D01*
X59693517Y-28160883D01*
X59420534Y-28273956D01*
X59323935Y-28293171D01*
X59130739Y-28331600D01*
X58835261Y-28331600D01*
X58642065Y-28293171D01*
X58545466Y-28273956D01*
X58272483Y-28160883D01*
X58026806Y-27996726D01*
X58026803Y-27996724D01*
X57817876Y-27787797D01*
X57653716Y-27542115D01*
X57540644Y-27269133D01*
X57483000Y-26979339D01*
X57483000Y-26683861D01*
X57540644Y-26394067D01*
X57653716Y-26121085D01*
X57817876Y-25875403D01*
X58026803Y-25666476D01*
X58151371Y-25583242D01*
X58272483Y-25502317D01*
X58313699Y-25485245D01*
X58352440Y-25469198D01*
X58545466Y-25389244D01*
X58642065Y-25370029D01*
X58835261Y-25331600D01*
X59130739Y-25331600D01*
X59323935Y-25370029D01*
X59323935Y-25370029D01*
G37*
G36*
X70483000Y-28331600D02*
X67483000Y-28331600D01*
X67483000Y-25331600D01*
X70483000Y-25331600D01*
X70483000Y-28331600D01*
X70483000Y-28331600D01*
G37*
G36*
X64323935Y-25370029D02*
X64420534Y-25389244D01*
X64613560Y-25469198D01*
X64652302Y-25485245D01*
X64693517Y-25502317D01*
X64814629Y-25583242D01*
X64939197Y-25666476D01*
X65148124Y-25875403D01*
X65312284Y-26121085D01*
X65425356Y-26394067D01*
X65483000Y-26683861D01*
X65483000Y-26979339D01*
X65425356Y-27269133D01*
X65312284Y-27542115D01*
X65148124Y-27787797D01*
X64939197Y-27996724D01*
X64939194Y-27996726D01*
X64693517Y-28160883D01*
X64420534Y-28273956D01*
X64323935Y-28293171D01*
X64130739Y-28331600D01*
X63835261Y-28331600D01*
X63642065Y-28293171D01*
X63545466Y-28273956D01*
X63272483Y-28160883D01*
X63026806Y-27996726D01*
X63026803Y-27996724D01*
X62817876Y-27787797D01*
X62653716Y-27542115D01*
X62540644Y-27269133D01*
X62483000Y-26979339D01*
X62483000Y-26683861D01*
X62540644Y-26394067D01*
X62653716Y-26121085D01*
X62817876Y-25875403D01*
X63026803Y-25666476D01*
X63151371Y-25583242D01*
X63272483Y-25502317D01*
X63313699Y-25485245D01*
X63352440Y-25469198D01*
X63545466Y-25389244D01*
X63642065Y-25370029D01*
X63835261Y-25331600D01*
X64130739Y-25331600D01*
X64323935Y-25370029D01*
X64323935Y-25370029D01*
G37*
G36*
X74420196Y-23083158D02*
X74656780Y-23181154D01*
X74869705Y-23323426D01*
X75050774Y-23504495D01*
X75193046Y-23717420D01*
X75291042Y-23954004D01*
X75341000Y-24205160D01*
X75341000Y-24461240D01*
X75291042Y-24712396D01*
X75193046Y-24948980D01*
X75050774Y-25161905D01*
X74869705Y-25342974D01*
X74656780Y-25485246D01*
X74420196Y-25583242D01*
X74169040Y-25633200D01*
X73912960Y-25633200D01*
X73661804Y-25583242D01*
X73425220Y-25485246D01*
X73212295Y-25342974D01*
X73031226Y-25161905D01*
X72888954Y-24948980D01*
X72790958Y-24712396D01*
X72741000Y-24461240D01*
X72741000Y-24205160D01*
X72790958Y-23954004D01*
X72888954Y-23717420D01*
X73031226Y-23504495D01*
X73212295Y-23323426D01*
X73425220Y-23181154D01*
X73661804Y-23083158D01*
X73912960Y-23033200D01*
X74169040Y-23033200D01*
X74420196Y-23083158D01*
X74420196Y-23083158D01*
G37*
M02*
