M48
METRIC,TZ
T1C0.300
T2C0.800
T3C1.000
T4C1.100
T5C1.300
%
G90
G05
T1
X33.899Y-33.216
X38.842Y-33.19
X43.423Y-52.292
X44.542Y-33.173
X44.693Y-52.242
X50.683Y-66.032
X52.47Y-54.182
X52.483Y-63.057
X52.933Y-33.632
X53.083Y-66.232
X54.483Y-61.432
X55.483Y-59.194
X57.731Y-66.432
X57.883Y-33.632
X62.781Y-66.432
X62.893Y-33.632
X65.083Y-59.232
X65.083Y-61.432
T2
X70.283Y-49.632
X73.783Y-49.632
X56.483Y-50.232
X56.483Y-52.732
T3
X71.438Y-56.769
X71.438Y-59.309
X71.438Y-61.849
X71.438Y-64.389
X71.438Y-66.929
X31.255Y-33.198
X31.255Y-35.738
X31.255Y-38.278
X31.255Y-40.818
X31.255Y-43.358
T4
X53.723Y-39.032
X63.883Y-39.032
T5
X53.983Y-26.832
X58.983Y-26.832
X63.983Y-26.832
X68.983Y-26.832
X54.881Y-73.932
X59.881Y-73.932
X64.881Y-73.932
X69.881Y-73.932
X72.083Y-35.632
X72.083Y-40.632
X32.883Y-26.832
X37.883Y-26.832
X42.883Y-26.832
X47.883Y-26.832
T0
M30
